<svg width="242" height="255" viewBox="0 0 242 255" fill="none" xmlns="http://www.w3.org/2000/svg">
<path d="M62.9931 0.872341C57.4417 -0.61514 51.735 2.67759 50.2462 8.23384L0.844504 192.603C-0.644288 198.16 2.65154 203.865 8.2029 205.352C13.7543 206.84 19.461 203.547 20.9498 197.991L70.3515 13.621C71.8403 8.06479 68.5444 2.35982 62.9931 0.872341Z" fill="white"/>
<path d="M110.839 24.4695C112.327 18.9133 118.034 15.6206 123.586 17.108C129.137 18.5955 132.433 24.3005 130.944 29.8567L81.5423 214.226C80.0535 219.783 74.3467 223.075 68.7954 221.588C63.244 220.1 59.9482 214.395 61.437 208.839L110.839 24.4695Z" fill="white"/>
<path fill-rule="evenodd" clip-rule="evenodd" d="M170.421 42.8009C172.728 34.19 183.571 31.4286 189.719 37.8872L238.275 88.8902C239.628 90.3126 240.566 92.028 241.051 93.863C241.546 95.7534 241.556 97.771 241.034 99.7194L201.893 245.797C200.261 251.887 193.998 255.503 187.908 253.871L129.854 238.316C123.762 236.683 120.148 230.421 121.78 224.331L170.421 42.8009Z" fill="white"/>
</svg>
